HIERARCHY
ROOT Hips
{
  OFFSET 3.13124 94.3669 -3.18751
  CHANNELS  6 Xposition Yposition Zposition Zrotation Xrotation Yrotation
  JOINT LeftUpLeg
  {
    OFFSET 8.64259 1.95398 -2.38835
    CHANNELS 3 Zrotation Xrotation Yrotation
    JOINT LeftLeg
    {
      OFFSET 43.7702 0 0
      CHANNELS 3 Zrotation Xrotation Yrotation
      JOINT LeftFoot
      {
        OFFSET 40.6238 0 0
        CHANNELS 3 Zrotation Xrotation Yrotation
        JOINT LeftToeBase
        {
          OFFSET 12.7242 0 0
          CHANNELS 3 Zrotation Xrotation Yrotation
          End Site
          {
            OFFSET 0 0 0
          }
        }
      }
    }
  }
  JOINT RightUpLeg
  {
    OFFSET -8.2249 1.95398 -2.59336
    CHANNELS 3 Zrotation Xrotation Yrotation
    JOINT RightLeg
    {
      OFFSET 43.5653 0 0
      CHANNELS 3 Zrotation Xrotation Yrotation
      JOINT RightFoot
      {
        OFFSET 40.6238 0 0
        CHANNELS 3 Zrotation Xrotation Yrotation
        JOINT RightToeBase
        {
          OFFSET 12.7242 0 0
          CHANNELS 3 Zrotation Xrotation Yrotation
          End Site
          {
            OFFSET 0 0 0
          }
        }
      }
    }
  }
  JOINT Spine
  {
    OFFSET 0.165834 0.87714 6.61349
    CHANNELS 3 Zrotation Xrotation Yrotation
    JOINT Spine1
    {
      OFFSET 7.38962 1.71661e-005 0
      CHANNELS 3 Zrotation Xrotation Yrotation
      JOINT Spine2
      {
        OFFSET 11.9445 1.14441e-005 0
        CHANNELS 3 Zrotation Xrotation Yrotation
        JOINT Spine3
        {
          OFFSET 14.7254 4.19617e-005 0
          CHANNELS 3 Zrotation Xrotation Yrotation
          JOINT Spine4
          {
            OFFSET 10.9679 0 0
            CHANNELS 3 Zrotation Xrotation Yrotation
            JOINT RightShoulder
            {
              OFFSET 2.46616 -1.6653 3.69651
              CHANNELS 3 Zrotation Xrotation Yrotation
              JOINT RightArm
              {
                OFFSET 13.0012 0 0
                CHANNELS 3 Zrotation Xrotation Yrotation
                JOINT RightForeArm
                {
                  OFFSET 28.7848 1.52588e-005 0
                  CHANNELS 3 Zrotation Xrotation Yrotation
                  JOINT RightHand
                  {
                    OFFSET 26.5688 1.52588e-005 0
                    CHANNELS 3 Zrotation Xrotation Yrotation
                    End Site
                    {
                      OFFSET 0 0 0
                    }
                  }
                }
              }
            }
            JOINT LeftShoulder
            {
              OFFSET 2.38034 -1.29275 -3.75231
              CHANNELS 3 Zrotation Xrotation Yrotation
              JOINT LeftArm
              {
                OFFSET 16.3182 6.10352e-005 0
                CHANNELS 3 Zrotation Xrotation Yrotation
                JOINT LeftForeArm
                {
                  OFFSET 27.0901 0 0
                  CHANNELS 3 Zrotation Xrotation Yrotation
                  JOINT LeftHand
                  {
                    OFFSET 24.5451 1.52588e-005 0
                    CHANNELS 3 Zrotation Xrotation Yrotation
                    End Site
                    {
                      OFFSET 0 0 0
                    }
                  }
                }
              }
            }
            JOINT Neck
            {
              OFFSET 5.0226 -0.0266342 0
              CHANNELS 3 Zrotation Xrotation Yrotation
              JOINT Head
              {
                OFFSET 6.69363 2.86102e-005 0
                CHANNELS 3 Zrotation Xrotation Yrotation
                End Site
                {
                  OFFSET 0 0 0
                }
              }
            }
          }
        }
      }
    }
  }
}
MOTION
Frames:	9
Frame Time:	0.0333333
55.928 90.9801 -61.7495 -96.9815 39.7428 -84.3582 -177.07 9.15951 78.6186 -17.2495 -10.0194 1.04597 62.5789 15.2565 8.84395 28.7808 6.09083e-006 7.53239e-006 179.83 10.8796 90.3593 -67.7183 -1.32726 -0.846592 30.9227 18.06 19.6852 28.7808 1.51774e-005 2.47067e-005 0.267485 6.0777 -89.234 14.7178 0.294023 0.130839 3.04691 0.29945 0.117786 -19.4884 0.241077 0.213148 0.524258 0.241053 0.213153 94.7455 -45.3112 -94.2222 9.16325 22.7124 17.8552 13.4704 25.9202 -37.0869 -5.389 -0.588611 8.32112 -86.0552 -49.6097 84.591 7.11842 -32.0041 -33.2548 1.86295 -25.4456 -2.85154 -1.01893 -0.0909761 -4.39098 -11.6389 30.1438 18.8828 -19.8483 27.7993 13.7771 
55.2298 90.9012 -62.3587 -97.1877 35.656 -84.3446 -176.692 8.33074 78.5826 -18.9335 -5.95282 1.12075 63.5122 15.8797 9.04103 28.7808 6.09083e-006 7.53239e-006 -179.909 15.6388 88.5886 -73.6515 1.43197 -0.81692 31.992 12.4356 13.5653 28.7808 1.51774e-005 2.47067e-005 0.278482 6.1444 -89.1733 14.5855 0.273463 -0.017728 2.9146 0.272396 -0.0297413 -19.6208 0.266115 0.0653266 0.391888 0.266109 0.0653123 95.1375 -43.8798 -93.8008 7.62777 23.7414 17.9677 13.7799 24.4179 -39.1038 -3.00674 -0.375426 11.5716 -85.4224 -47.8367 85.2985 8.94462 -32.8408 -32.3651 1.85801 -25.8314 -2.8457 -1.84602 -0.0809075 -2.27187 -13.3283 28.9317 18.8935 -19.3347 27.0468 12.9201 
54.668 90.7516 -62.8722 -97.2754 31.2293 -84.6699 -176.43 7.66655 78.3693 -20.6097 -1.7524 1.31075 64.3285 16.6313 9.31519 28.7808 6.09083e-006 7.53239e-006 -179.402 21.2244 86.219 -78.8105 -5.81892 -1.36927 26.4096 -0.250229 0.980364 28.7808 1.51774e-005 2.47067e-005 0.236002 6.2107 -89.0418 14.4535 0.232919 -0.0467595 2.78255 0.230601 -0.0570935 -19.7528 0.236412 0.0247377 0.259886 0.236412 0.0247133 95.2319 -42.7748 -93.8188 5.2346 25.1523 18.2911 15.5335 24.6832 -41.7218 -0.956337 -0.0959743 18.1743 -84.797 -45.6897 85.974 10.138 -33.1476 -30.9978 1.85965 -25.7035 -2.84764 -1.64503 -0.0857081 -3.49775 -14.1893 27.697 17.3456 -19.5405 25.98 12.8038 
54.1921 90.7512 -63.4021 -97.2224 26.3429 -84.9645 -176.268 6.78716 78.4775 -21.5908 2.71214 1.55025 64.7166 17.4604 9.70562 28.7808 6.09083e-006 7.53239e-006 -178.521 24.6572 84.5049 -80.6389 0.25542 -1.07127 28.4923 0.882002 2.12654 28.7808 1.51774e-005 2.47067e-005 0.18239 6.28979 -89.0171 14.2939 0.159515 -0.0388893 2.62294 0.157631 -0.046036 -19.9123 0.163889 0.0107027 0.10037 0.163858 0.0106852 96.0494 -41.9363 -92.5594 3.40782 26.1998 15.7374 14.434 24.1437 -40.4983 0.769645 0.339436 25.0751 -84.216 -43.3533 86.6046 11.4265 -33.6592 -30.1947 1.84926 -26.5197 -2.83529 -2.89633 -0.104105 -1.32054 -14.2924 26.4346 15.4119 -19.8473 24.7879 12.3496 
53.8049 90.8097 -63.9068 -96.8329 21.1906 -85.3737 -176.137 6.21174 78.7214 -22.3954 7.63267 1.89729 64.7552 18.0809 10.0348 28.7808 6.09083e-006 7.53239e-006 -177.874 28.1131 83.1925 -80.5339 2.93334 -0.911841 27.6518 -2.18263 -1.18804 28.7808 1.51774e-005 2.47067e-005 0.0953895 6.34175 -89.0316 14.1891 0.0855562 -0.0499946 2.51816 0.083295 -0.0539581 -20.017 0.0964058 -0.0212328 -0.00436005 0.0964013 -0.0212508 96.5261 -41.1745 -91.843 2.01474 26.8819 16.8903 16.7556 25.8726 -42.4076 3.07928 0.792986 19.9237 -83.9895 -41.4255 86.7192 12.8117 -34.1653 -29.3113 1.83494 -27.6535 -2.81822 -3.20568 -0.13035 1.10083 -14.4276 24.9556 14.0493 -19.7349 23.5209 11.0543 
53.4168 91.0136 -64.384 -96.5272 15.6984 -85.5812 -176.028 5.28483 79.2662 -22.651 12.9075 2.29343 64.4623 18.6938 10.4421 28.7808 6.09083e-006 7.53239e-006 -177.716 30.7546 82.7877 -78.5079 2.7322 -0.878958 29.2464 -3.94211 -3.07597 28.7808 1.51774e-005 2.47067e-005 -0.027212 6.4016 -89.1287 14.0677 -0.0618179 -0.0108366 2.39677 -0.0622262 -0.00846047 -20.1384 -0.055852 -0.0275612 -0.125758 -0.0558582 -0.027571 96.9379 -40.6944 -91.187 0.689641 27.6001 15.2543 17.4114 27.3073 -41.9989 2.26726 0.668362 21.9528 -83.4251 -39.3328 87.3861 13.5343 -34.3451 -28.5838 1.79883 -30.6218 -2.77446 -2.7131 -0.106586 1.01467 -14.2747 23.5554 11.6131 -19.9695 22.1598 10.6374 
53.0291 91.3251 -64.7812 -96.4306 10.1124 -85.6276 -175.928 3.98469 79.9929 -22.3599 18.6006 2.77598 63.6681 19.2025 10.9028 28.7808 6.09083e-006 7.53239e-006 -178.019 32.2705 83.2473 -74.364 4.11634 -0.698632 32.4069 -3.54925 -2.56903 28.7808 1.51774e-005 2.47067e-005 -0.124197 6.46908 -89.3285 13.93 -0.196796 -0.0369683 2.25907 -0.198271 -0.0282779 -20.2762 -0.17653 -0.0943329 -0.263553 -0.176528 -0.0943574 97.2437 -39.9738 -90.7425 -0.255296 27.9525 14.506 17.2813 27.9596 -41.2045 1.36978 0.433636 21.0086 -83.1052 -37.8346 87.7456 14.3248 -34.4957 -27.707 1.78581 -31.7178 -2.75841 -3.35157 -0.137384 1.166 -14.6944 21.9541 9.67996 -19.68 20.7241 9.98321 
52.6671 91.6116 -65.0924 -96.0674 4.68173 -85.7134 -175.857 3.10829 80.6873 -22.1451 23.9072 3.27703 62.9279 19.8014 11.4311 28.7808 6.09083e-006 7.53239e-006 -178.54 33.6389 84.2057 -68.6421 5.18549 -0.504278 32.5951 -2.40002 -1.40403 28.7808 1.51774e-005 2.47067e-005 -0.195884 6.4897 -89.5473 13.8924 -0.300826 -0.0908571 2.22148 -0.304407 -0.077405 -20.3139 -0.2605 -0.177952 -0.301233 -0.260517 -0.17798 97.6596 -39.035 -90.1144 -0.954588 28.0934 13.1365 16.6935 28.9266 -39.4756 0.444234 0.21011 20.1207 -82.8414 -36.6072 88.063 14.6072 -34.316 -26.7166 1.78574 -31.7239 -2.75832 -3.39669 -0.129731 0.121505 -14.8873 20.2905 8.32836 -19.5072 19.3481 8.10384 
52.4187 91.8374 -65.3987 -95.6653 -0.333129 -86.0552 -176.052 2.49993 81.1307 -22.0229 28.5897 3.9225 62.3969 19.9444 11.6694 28.7808 6.09083e-006 7.53239e-006 -179.19 34.393 85.4692 -61.5635 4.36142 -0.400275 32.535 -1.03769 -0.0222304 28.7808 1.51774e-005 2.47067e-005 -0.183521 6.49307 -89.8202 13.8869 -0.283429 -0.132643 2.21596 -0.289221 -0.120076 -20.3193 -0.229033 -0.210264 -0.30666 -0.229032 -0.21028 98.1957 -38.268 -89.2332 -1.90757 28.4225 12.311 15.9561 29.0593 -38.2516 0.129065 0.138543 19.9374 -82.9712 -36.1097 87.7657 15.1006 -34.585 -26.7139 1.75611 -34.2978 -2.72114 -0.850922 -0.00193908 2.1311 -15.5915 18.5652 7.51957 -18.5093 18.0618 5.62275 
